<svg width="24" height="25" viewBox="0 0 24 25" fill="none" xmlns="http://www.w3.org/2000/svg">
<g clip-path="url(#clip0_1_168)">
<path d="M20.317 4.99295C18.787 4.30295 17.147 3.79295 15.432 3.50295C15.4167 3.50002 15.4009 3.50191 15.3868 3.50836C15.3726 3.51481 15.3608 3.5255 15.353 3.53895C15.143 3.90795 14.909 4.38895 14.745 4.76895C12.9261 4.49719 11.0769 4.49719 9.25799 4.76895C9.07533 4.34781 8.86934 3.93717 8.64099 3.53895C8.63325 3.52533 8.62154 3.5144 8.60743 3.50761C8.59331 3.50082 8.57746 3.4985 8.56199 3.50095C6.84799 3.79095 5.20799 4.30095 3.67699 4.99195C3.66382 4.99747 3.65265 5.0069 3.64499 5.01895C0.532992 9.59395 -0.320008 14.056 0.0989923 18.462C0.100158 18.4727 0.103508 18.4832 0.108837 18.4926C0.114167 18.5021 0.121364 18.5104 0.129992 18.517C1.94638 19.8394 3.97233 20.8468 6.12299 21.497C6.13798 21.5016 6.15402 21.5016 6.16901 21.4969C6.18399 21.4923 6.19723 21.4832 6.20699 21.4709C6.66899 20.8509 7.08099 20.1959 7.43299 19.5079C7.45399 19.4679 7.43399 19.4199 7.39199 19.4039C6.746 19.1607 6.12008 18.8671 5.51999 18.5259C5.50921 18.5198 5.50012 18.5111 5.49355 18.5005C5.48698 18.49 5.48312 18.478 5.48233 18.4656C5.48153 18.4532 5.48383 18.4408 5.48901 18.4295C5.49418 18.4183 5.50208 18.4084 5.51199 18.4009C5.63799 18.3079 5.76399 18.211 5.88399 18.114C5.89479 18.1052 5.9078 18.0997 5.92158 18.0979C5.93535 18.0961 5.94934 18.0982 5.96199 18.104C9.88899 19.868 14.142 19.868 18.023 18.104C18.0357 18.0979 18.0498 18.0955 18.0638 18.0971C18.0778 18.0987 18.091 18.1042 18.102 18.1129C18.222 18.2109 18.347 18.3079 18.474 18.4009C18.484 18.4083 18.492 18.418 18.4974 18.4292C18.5027 18.4403 18.5052 18.4527 18.5046 18.4651C18.504 18.4774 18.5004 18.4895 18.494 18.5001C18.4876 18.5107 18.4787 18.5196 18.468 18.5259C17.87 18.8699 17.248 19.161 16.595 19.403C16.585 19.4066 16.5758 19.4123 16.5682 19.4198C16.5606 19.4272 16.5546 19.4362 16.5507 19.4462C16.5468 19.4561 16.5451 19.4668 16.5457 19.4774C16.5463 19.4881 16.5491 19.4985 16.554 19.5079C16.914 20.195 17.326 20.8489 17.779 21.4699C17.7884 21.4827 17.8015 21.4922 17.8166 21.4972C17.8316 21.5022 17.8478 21.5025 17.863 21.4979C20.0173 20.8496 22.0466 19.8417 23.865 18.517C23.8739 18.5107 23.8813 18.5027 23.8868 18.4934C23.8923 18.4841 23.8958 18.4737 23.897 18.4629C24.397 13.3689 23.059 8.94295 20.348 5.02095C20.3413 5.0082 20.3303 4.99827 20.317 4.99295ZM8.01999 15.7789C6.83799 15.7789 5.86299 14.7099 5.86299 13.3989C5.86299 12.0869 6.81899 11.0189 8.01999 11.0189C9.22999 11.0189 10.196 12.0959 10.177 13.3989C10.177 14.7109 9.22099 15.7789 8.01999 15.7789ZM15.995 15.7789C14.812 15.7789 13.838 14.7099 13.838 13.3989C13.838 12.0869 14.793 11.0189 15.995 11.0189C17.205 11.0189 18.171 12.0959 18.152 13.3989C18.152 14.7109 17.206 15.7789 15.995 15.7789Z" fill="white"/>
</g>
<defs>
<clipPath id="clip0_1_168">
<rect width="24" height="24" fill="white" transform="translate(0 0.5)"/>
</clipPath>
</defs>
</svg>
