<svg width="20" height="14" viewBox="0 0 20 14" fill="none" xmlns="http://www.w3.org/2000/svg">
<path id="Vector" d="M16.9307 1.16111C15.6558 0.624476 14.2892 0.227835 12.86 0.00229442C12.8473 1.40627e-05 12.8341 0.00148361 12.8223 0.00649985C12.8105 0.0115161 12.8007 0.0198309 12.7942 0.0302926C12.6192 0.317274 12.4242 0.69136 12.2875 0.986896C10.7718 0.775539 9.23089 0.775539 7.71518 0.986896C7.56296 0.659365 7.39131 0.340002 7.20103 0.0302926C7.19458 0.0197021 7.18482 0.0111992 7.17306 0.00591873C7.16129 0.000638253 7.14809 -0.00116878 7.13519 0.000738897C5.7069 0.22628 4.34028 0.62292 3.06448 1.16033C3.0535 1.16463 3.0442 1.17195 3.03781 1.18133C0.444554 4.73943 -0.266258 8.20964 0.0828981 11.6363C0.0838697 11.6447 0.086661 11.6528 0.091102 11.6602C0.095543 11.6675 0.101541 11.674 0.108731 11.6791C1.62235 12.7076 3.31059 13.491 5.10275 13.9967C5.11525 14.0003 5.12861 14.0003 5.1411 13.9967C5.15358 13.9931 5.16461 13.986 5.17275 13.9765C5.55774 13.4943 5.90106 12.9849 6.19439 12.4498C6.21189 12.4187 6.19522 12.3814 6.16022 12.3689C5.62191 12.1797 5.10032 11.9514 4.60027 11.6861C4.59128 11.6813 4.58371 11.6745 4.57823 11.6663C4.57275 11.6581 4.56954 11.6488 4.56888 11.6392C4.56822 11.6295 4.57013 11.6199 4.57445 11.6111C4.57876 11.6023 4.58534 11.5947 4.5936 11.5889C4.6986 11.5165 4.80359 11.4411 4.90359 11.3657C4.91259 11.3589 4.92344 11.3546 4.93491 11.3532C4.94639 11.3518 4.95805 11.3534 4.96859 11.3579C8.241 12.7298 11.7851 12.7298 15.0191 11.3579C15.0297 11.3532 15.0415 11.3513 15.0531 11.3526C15.0648 11.3538 15.0758 11.3581 15.085 11.3649C15.185 11.4411 15.2891 11.5165 15.395 11.5889C15.4033 11.5946 15.41 11.6021 15.4144 11.6108C15.4189 11.6195 15.421 11.6291 15.4205 11.6387C15.42 11.6484 15.4169 11.6577 15.4116 11.666C15.4063 11.6743 15.3988 11.6812 15.39 11.6861C14.8916 11.9536 14.3733 12.1799 13.8292 12.3681C13.8208 12.371 13.8132 12.3754 13.8068 12.3812C13.8005 12.387 13.7955 12.394 13.7923 12.4018C13.789 12.4095 13.7876 12.4178 13.7881 12.4261C13.7886 12.4343 13.7909 12.4424 13.795 12.4498C14.095 12.9841 14.4383 13.4927 14.8158 13.9757C14.8237 13.9856 14.8346 13.993 14.8471 13.9969C14.8596 14.0008 14.8732 14.001 14.8858 13.9975C16.681 13.4932 18.372 12.7094 19.8873 11.6791C19.8947 11.6743 19.9009 11.668 19.9055 11.6608C19.9101 11.6535 19.913 11.6455 19.914 11.6371C20.3306 7.67535 19.2157 4.23313 16.9566 1.18288C16.951 1.17297 16.9419 1.16524 16.9307 1.16111ZM6.68354 9.54967C5.69857 9.54967 4.88609 8.71828 4.88609 7.69868C4.88609 6.6783 5.68274 5.84769 6.68354 5.84769C7.69184 5.84769 8.49682 6.6853 8.48099 7.69868C8.48099 8.71906 7.68435 9.54967 6.68354 9.54967ZM13.3292 9.54967C12.3434 9.54967 11.5317 8.71828 11.5317 7.69868C11.5317 6.6783 12.3275 5.84769 13.3292 5.84769C14.3375 5.84769 15.1425 6.6853 15.1266 7.69868C15.1266 8.71906 14.3383 9.54967 13.3292 9.54967Z" fill="#BDC4C9"/>
</svg>
